<svg width="556" height="110" viewBox="0 0 556 110" fill="none" xmlns="http://www.w3.org/2000/svg">
<circle cx="55" cy="55" r="55" fill="url(#paint0_linear_302_13)"/>
<path d="M84.3067 25.5819C76.8844 14.9534 62.216 11.8015 51.6079 18.5595L32.9809 30.4352C30.4636 32.0159 28.3046 34.1054 26.6423 36.5695C24.98 39.0337 23.8513 41.8182 23.3285 44.7443C22.4394 49.6739 23.2194 54.7593 25.5451 59.1958C23.949 61.6176 22.8627 64.3391 22.3525 67.1943C21.8212 70.1792 21.8911 73.2402 22.558 76.1978C23.225 79.1553 24.4756 81.9501 26.2365 84.4181C33.6927 95.0466 48.3339 98.1985 58.9421 91.4405L77.569 79.5648C80.0858 77.9835 82.2444 75.8938 83.9066 73.4297C85.5687 70.9657 86.6978 68.1815 87.2214 65.2557C88.1136 60.3217 87.3335 55.2311 85.0049 50.7906C86.6009 48.3688 87.6872 45.6474 88.1975 42.7922C88.7293 39.8068 88.6591 36.7453 87.9909 33.7875C87.3227 30.8296 86.0701 28.0352 84.3067 25.5684" fill="white" fill-opacity="0.4"/>
<path d="M49.4294 85.2926C46.5002 86.0541 43.4078 85.8982 40.5701 84.846C37.7323 83.7938 35.2859 81.896 33.5612 79.409C32.4991 77.9262 31.7439 76.2462 31.34 74.4676C30.9361 72.689 30.8916 70.8477 31.2091 69.0516C31.3152 68.4614 31.4625 67.8793 31.6497 67.3096L32.0022 66.2386L32.9579 66.9164C35.1611 68.5371 37.6257 69.7682 40.2447 70.5564L40.9225 70.7665L40.8547 71.4444C40.7737 72.4259 41.04 73.4047 41.6071 74.21C42.1241 74.9773 42.8673 75.5646 43.7335 75.8901C44.5996 76.2157 45.5456 76.2633 46.4401 76.0265C46.8432 75.9188 47.2272 75.7496 47.5789 75.525L66.1719 63.656C66.628 63.3681 67.0195 62.9887 67.3216 62.5419C67.6238 62.095 67.8301 61.5905 67.9275 61.0599C68.027 60.5212 68.0184 59.9681 67.902 59.4328C67.7856 58.8974 67.5639 58.3906 67.2497 57.9419C66.7296 57.1917 65.9918 56.6192 65.1361 56.3016C64.2803 55.9841 63.3477 55.9367 62.4641 56.166C62.0594 56.2752 61.6733 56.4442 61.3186 56.6676L54.1878 61.1955C53.0198 61.9402 51.744 62.5003 50.4054 62.8562C47.4743 63.6197 44.3794 63.4649 41.539 62.4127C38.6987 61.3604 36.2499 59.4615 34.5237 56.9726C33.4674 55.4873 32.7183 53.8062 32.3202 52.0277C31.9222 50.2491 31.8832 48.409 32.2055 46.6152C32.5224 44.8563 33.2019 43.1825 34.2008 41.7005C35.1998 40.2184 36.4963 38.9605 38.0078 38.0067L56.6076 26.1378C57.7756 25.3931 59.0513 24.833 60.3899 24.4771C63.3201 23.7141 66.4139 23.8692 69.253 24.9214C72.0922 25.9737 74.5398 27.8724 76.2649 30.3607C77.327 31.8434 78.0822 33.5234 78.4861 35.302C78.89 37.0806 78.9345 38.922 78.617 40.7181C78.5108 41.3083 78.3636 41.8904 78.1764 42.4601L77.8239 43.5311L76.8681 42.8532C74.665 41.2326 72.2004 40.0015 69.5814 39.2133L68.9036 39.0031L68.9714 38.3253C69.0524 37.3438 68.7861 36.3649 68.219 35.5597C67.6996 34.8088 66.9619 34.2358 66.1059 33.9181C65.2499 33.6004 64.317 33.5536 63.4335 33.7838C63.0304 33.8916 62.6463 34.0608 62.2947 34.2854L43.6542 46.1136C43.198 46.4007 42.8068 46.78 42.5056 47.227C42.2045 47.6741 42 48.1791 41.9054 48.7098C41.8023 49.2483 41.8092 49.8022 41.9257 50.338C42.0422 50.8739 42.2659 51.3806 42.5832 51.8278C43.1033 52.5779 43.841 53.1505 44.6968 53.468C45.5526 53.7856 46.4852 53.833 47.3687 53.6037C47.7734 53.4945 48.1595 53.3254 48.5143 53.1021L55.618 48.5742C56.7859 47.8295 58.0617 47.2694 59.4003 46.9135C62.3315 46.15 65.4264 46.3048 68.2667 47.357C71.107 48.4093 73.5558 50.3082 75.282 52.7971C76.3418 54.2808 77.0946 55.9613 77.4962 57.7399C77.8977 59.5184 77.94 61.3593 77.6206 63.1544C77.3037 64.9134 76.6242 66.5872 75.6252 68.0692C74.6263 69.5513 73.3298 70.8092 71.8183 71.763L53.2185 83.6319C52.0505 84.3765 50.7748 84.9367 49.4361 85.2926" fill="white"/>
<g filter="url(#filter0_iiii_302_13)">
<circle cx="55" cy="55" r="55" fill="url(#paint1_linear_302_13)" fill-opacity="0.12"/>
</g>
<path d="M149.086 96.116C145.304 96.116 141.879 95.496 138.81 94.256C135.741 92.985 133.137 91.2645 130.998 89.0945C128.89 86.8935 127.355 84.398 126.394 81.608L134.02 78.818C135.322 81.701 137.291 84.0415 139.926 85.8395C142.592 87.6065 145.707 88.49 149.272 88.49C153.178 88.49 156.294 87.56 158.619 85.7C160.944 83.809 162.106 81.081 162.106 77.516C162.106 75.005 161.409 72.897 160.014 71.192C158.619 69.487 156.805 68.061 154.573 66.914C152.341 65.736 149.954 64.682 147.412 63.752C145.149 62.915 142.886 61.985 140.623 60.962C138.36 59.939 136.299 58.73 134.439 57.335C132.61 55.909 131.137 54.1885 130.021 52.1735C128.905 50.1275 128.347 47.694 128.347 44.873C128.347 41.959 129.138 39.293 130.719 36.875C132.3 34.426 134.578 32.473 137.554 31.016C140.53 29.528 144.126 28.784 148.342 28.784C151.783 28.784 154.806 29.2955 157.41 30.3185C160.045 31.3105 162.199 32.69 163.873 34.457C165.578 36.193 166.756 38.177 167.407 40.409L159.967 42.92C159.192 41.091 157.766 39.541 155.689 38.27C153.643 36.968 151.008 36.317 147.784 36.317C144.343 36.317 141.631 37.0765 139.647 38.5955C137.694 40.1145 136.717 42.207 136.717 44.873C136.717 46.888 137.368 48.5775 138.67 49.9415C140.003 51.2745 141.739 52.437 143.878 53.429C146.017 54.421 148.311 55.382 150.76 56.312C153.054 57.18 155.348 58.172 157.642 59.288C159.967 60.373 162.091 61.706 164.013 63.287C165.966 64.868 167.531 66.8055 168.709 69.0995C169.887 71.3625 170.476 74.106 170.476 77.33C170.476 81.329 169.546 84.7235 167.686 87.5135C165.826 90.3035 163.284 92.4425 160.06 93.9305C156.836 95.3875 153.178 96.116 149.086 96.116ZM200.187 95L177.867 29.9H186.516L202.047 76.958C202.326 77.826 202.636 78.849 202.977 80.027C203.349 81.174 203.69 82.352 204 83.561C204.279 82.352 204.574 81.1895 204.884 80.0735C205.225 78.9575 205.55 77.919 205.86 76.958L220.926 29.9H229.575L207.348 95H200.187ZM241.369 95V29.9H280.057V37.526H249.46V57.521H269.641V65.147H249.46V87.281H282.103V95H241.369ZM296.406 95V29.9H304.497V87.188H336.489V95H296.406ZM354.858 95V37.619H336.723V29.9H381.084V37.619H362.949V95H354.858ZM394.764 95V29.9H433.452V37.526H402.855V57.521H423.036V65.147H402.855V87.281H435.498V95H394.764Z" fill="#484854"/>
<path d="M473.315 96.116C467.983 96.116 463.597 95.124 460.156 93.14C456.715 91.156 454.157 88.2575 452.483 84.4445C450.809 80.6315 449.972 75.997 449.972 70.541V29.9H458.063V70.541C458.063 76.183 459.241 80.585 461.597 83.747C463.984 86.909 467.89 88.49 473.315 88.49C476.756 88.49 479.608 87.839 481.871 86.537C484.165 85.204 485.87 83.22 486.986 80.585C488.102 77.919 488.66 74.571 488.66 70.541V29.9H496.751V70.541C496.751 74.757 496.255 78.4615 495.263 81.6545C494.271 84.8475 492.799 87.529 490.846 89.699C488.893 91.838 486.444 93.45 483.499 94.535C480.585 95.589 477.19 96.116 473.315 96.116ZM514.556 95V29.9H522.647V95H514.556Z" fill="#228BE6"/>
<defs>
<filter id="filter0_iiii_302_13" x="-2.93333" y="-2.93333" width="115.867" height="115.867" filterUnits="userSpaceOnUse" color-interpolation-filters="sRGB">
<feFlood flood-opacity="0" result="BackgroundImageFix"/>
<feBlend mode="normal" in="SourceGraphic" in2="BackgroundImageFix" result="shape"/>
<feColorMatrix in="SourceAlpha" type="matrix" values="0 0 0 0 0 0 0 0 0 0 0 0 0 0 0 0 0 0 127 0" result="hardAlpha"/>
<feOffset dx="-2.93333" dy="2.93333"/>
<feGaussianBlur stdDeviation="1.46667"/>
<feComposite in2="hardAlpha" operator="arithmetic" k2="-1" k3="1"/>
<feColorMatrix type="matrix" values="0 0 0 0 0.235294 0 0 0 0 0.519216 0 0 0 0 0.756078 0 0 0 0.44 0"/>
<feBlend mode="normal" in2="shape" result="effect1_innerShadow_302_13"/>
<feColorMatrix in="SourceAlpha" type="matrix" values="0 0 0 0 0 0 0 0 0 0 0 0 0 0 0 0 0 0 127 0" result="hardAlpha"/>
<feOffset dx="-1.46667" dy="1.46667"/>
<feGaussianBlur stdDeviation="0.733333"/>
<feComposite in2="hardAlpha" operator="arithmetic" k2="-1" k3="1"/>
<feColorMatrix type="matrix" values="0 0 0 0 1 0 0 0 0 1 0 0 0 0 1 0 0 0 0.44 0"/>
<feBlend mode="normal" in2="effect1_innerShadow_302_13" result="effect2_innerShadow_302_13"/>
<feColorMatrix in="SourceAlpha" type="matrix" values="0 0 0 0 0 0 0 0 0 0 0 0 0 0 0 0 0 0 127 0" result="hardAlpha"/>
<feOffset dx="2.93333" dy="-2.93333"/>
<feGaussianBlur stdDeviation="1.46667"/>
<feComposite in2="hardAlpha" operator="arithmetic" k2="-1" k3="1"/>
<feColorMatrix type="matrix" values="0 0 0 0 1 0 0 0 0 1 0 0 0 0 1 0 0 0 0.44 0"/>
<feBlend mode="normal" in2="effect2_innerShadow_302_13" result="effect3_innerShadow_302_13"/>
<feColorMatrix in="SourceAlpha" type="matrix" values="0 0 0 0 0 0 0 0 0 0 0 0 0 0 0 0 0 0 127 0" result="hardAlpha"/>
<feOffset dx="1.46667" dy="-1.46667"/>
<feGaussianBlur stdDeviation="0.733333"/>
<feComposite in2="hardAlpha" operator="arithmetic" k2="-1" k3="1"/>
<feColorMatrix type="matrix" values="0 0 0 0 0.235294 0 0 0 0 0.519216 0 0 0 0 0.756078 0 0 0 0.44 0"/>
<feBlend mode="normal" in2="effect3_innerShadow_302_13" result="effect4_innerShadow_302_13"/>
</filter>
<linearGradient id="paint0_linear_302_13" x1="-18" y1="-51.5" x2="62" y2="81.5" gradientUnits="userSpaceOnUse">
<stop stop-color="#74C0FC"/>
<stop offset="1" stop-color="#228BE6"/>
</linearGradient>
<linearGradient id="paint1_linear_302_13" x1="-18" y1="-51.5" x2="62" y2="81.5" gradientUnits="userSpaceOnUse">
<stop stop-color="#74C0FC"/>
<stop offset="1" stop-color="#228BE6"/>
</linearGradient>
</defs>
</svg>
