<?xml version="1.0" encoding="UTF-8" standalone="no"?>
<svg
   xmlns:dc="http://purl.org/dc/elements/1.1/"
   xmlns:cc="http://creativecommons.org/ns#"
   xmlns:rdf="http://www.w3.org/1999/02/22-rdf-syntax-ns#"
   xmlns:svg="http://www.w3.org/2000/svg"
   xmlns="http://www.w3.org/2000/svg"
   xmlns:sodipodi="http://sodipodi.sourceforge.net/DTD/sodipodi-0.dtd"
   xmlns:inkscape="http://www.inkscape.org/namespaces/inkscape"
   width="157.82401"
   height="190"
   viewBox="0 0 157.82401 190"
   version="1.1"
   id="svg11"
   sodipodi:docname="emblem-light.svg"
   inkscape:version="0.92.1 r15371">
  <metadata
     id="metadata17">
    <rdf:RDF>
      <cc:Work
         rdf:about="">
        <dc:format>image/svg+xml</dc:format>
        <dc:type
           rdf:resource="http://purl.org/dc/dcmitype/StillImage" />
        <dc:title>emblem-light</dc:title>
      </cc:Work>
    </rdf:RDF>
  </metadata>
  <defs
     id="defs15" />
  <sodipodi:namedview
     pagecolor="#ffffff"
     bordercolor="#666666"
     borderopacity="1"
     objecttolerance="10"
     gridtolerance="10"
     guidetolerance="10"
     inkscape:pageopacity="0"
     inkscape:pageshadow="2"
     inkscape:window-width="1301"
     inkscape:window-height="744"
     id="namedview13"
     showgrid="false"
     inkscape:zoom="1.2421053"
     inkscape:cx="157.08347"
     inkscape:cy="127.20339"
     inkscape:window-x="65"
     inkscape:window-y="24"
     inkscape:window-maximized="1"
     inkscape:current-layer="svg11" />
  <!-- Generator: Sketch 60.1 (88133) - https://sketch.com -->
  <title
     id="title2">emblem-light</title>
  <desc
     id="desc4">Created with Sketch.</desc>
  <g
     id="g842">
    <path
       id="path30"
       d="M 145.74594,28.265711 C 129.03041,4.1892211 95.752718,-2.865037 71.829582,12.316954 L 29.657387,39.30716 C 18.155879,46.51477 10.181499,58.322986 7.8811981,71.664733 5.8876013,82.859537 7.5744903,94.361045 12.941861,104.32902 c -3.6804817,5.52072 -6.1341364,11.65486 -7.2076136,18.0957 -2.4536547,13.64846 0.7667694,27.75698 8.7411496,38.95178 16.868875,24.07648 49.993217,31.13074 73.916357,15.94875 L 130.56395,150.4884 c 11.50151,-7.20761 19.47588,-19.01582 21.77619,-32.35757 1.99359,-11.1948 0.3067,-22.696312 -5.06067,-32.664285 3.68049,-5.520725 6.13414,-11.654862 7.20761,-18.095706 2.60701,-13.801809 -0.61341,-27.910325 -8.74114,-39.105128"
       class="st0"
       inkscape:connector-curvature="0"
       style="fill:#228be6;fill-opacity:1;stroke:#002c4b;stroke-width:7.38005638;stroke-miterlimit:4;stroke-dasharray:none;stroke-opacity:1" />
    <path
       id="path32"
       d="m 67.689039,163.6768 c -13.648455,3.52713 -27.910326,-1.84024 -35.884705,-13.34175 -4.90731,-6.74755 -6.747553,-15.18199 -5.367372,-23.46308 0.306708,-1.38018 0.613416,-2.60701 0.92012,-3.98719 l 0.766769,-2.45365 2.146947,1.53353 c 5.060664,3.68048 10.581389,6.44085 16.562172,8.28109 l 1.533535,0.46006 -0.153354,1.53353 c -0.153354,2.14695 0.460062,4.44725 1.686889,6.28749 2.453655,3.52713 6.747552,5.21402 10.888092,4.14055 0.920124,-0.30671 1.840243,-0.61342 2.607009,-1.07348 l 42.018839,-26.83685 c 2.14695,-1.38018 3.52713,-3.37378 3.98719,-5.82743 0.46006,-2.45366 -0.15335,-5.06066 -1.53353,-7.05426 -2.45366,-3.527125 -6.74755,-5.060661 -10.888095,-3.987187 -0.920119,0.306708 -1.840243,0.613412 -2.607008,1.073473 l -16.10211,10.274684 c -2.607009,1.68689 -5.520725,2.91371 -8.587795,3.68048 C 56.034177,116.44394 41.772306,111.07657 33.797927,99.575062 29.043971,92.82751 27.050378,84.393068 28.583913,76.111984 29.964091,68.137605 34.871404,60.929994 41.772306,56.636097 L 83.944502,29.799246 c 2.607009,-1.686888 5.520725,-2.913716 8.587792,-3.833836 13.648456,-3.52713 27.910326,1.840241 35.884706,13.34175 4.90731,6.747548 6.74755,15.18199 5.36737,23.463074 -0.30671,1.380181 -0.61341,2.607008 -1.07347,3.987189 l -0.76677,2.453655 -2.14695,-1.533531 c -5.06066,-3.680486 -10.58138,-6.440845 -16.56217,-8.281088 l -1.53354,-0.460061 0.15336,-1.533532 c 0.15335,-2.146951 -0.46006,-4.447251 -1.68689,-6.287494 -2.45365,-3.527129 -6.74755,-5.060664 -10.888094,-3.987186 -0.92012,0.306704 -1.840239,0.613411 -2.607009,1.073473 L 54.653996,75.038511 c -2.146947,1.380181 -3.527129,3.373774 -3.98719,5.827429 -0.460058,2.453655 0.153354,5.060663 1.533535,7.05426 2.453655,3.527128 6.747552,5.060663 10.888096,3.98719 0.920119,-0.306708 1.840239,-0.613416 2.607005,-1.073477 L 81.797555,80.559232 c 2.607009,-1.686885 5.520725,-2.913713 8.587792,-3.833836 13.648453,-3.527128 27.910323,1.840243 35.884703,13.341751 4.90731,6.747552 6.74755,15.181993 5.36737,23.463073 -1.38018,7.97438 -6.28749,15.18199 -13.18839,19.47589 l -42.1722,26.83685 c -2.607008,1.68689 -5.520721,2.91372 -8.587791,3.83384"
       class="st1"
       inkscape:connector-curvature="0"
       style="fill:#ffffff;stroke-width:1.53353441" />
    <path
       id="path32-3"
       d="m 67.689039,163.6768 c -13.648455,3.52713 -27.910326,-1.84024 -35.884705,-13.34175 -4.90731,-6.74755 -6.747553,-15.18199 -5.367372,-23.46308 0.306708,-1.38018 0.613416,-2.60701 0.92012,-3.98719 l 0.766769,-2.45365 2.146947,1.53353 c 5.060664,3.68048 10.581389,6.44085 16.562172,8.28109 l 1.533535,0.46006 -0.153354,1.53353 c -0.153354,2.14695 0.460062,4.44725 1.686889,6.28749 2.453655,3.52713 6.747552,5.21402 10.888092,4.14055 0.920124,-0.30671 1.840243,-0.61342 2.607009,-1.07348 l 42.018839,-26.83685 c 2.14695,-1.38018 3.52713,-3.37378 3.98719,-5.82743 0.46006,-2.45366 -0.15335,-5.06066 -1.53353,-7.05426 -2.45366,-3.527125 -6.74755,-5.060661 -10.888095,-3.987187 -0.920119,0.306708 -1.840243,0.613412 -2.607008,1.073473 l -16.10211,10.274684 c -2.607009,1.68689 -5.520725,2.91371 -8.587795,3.68048 C 56.034177,116.44394 41.772306,111.07657 33.797927,99.575062 29.043971,92.82751 27.050378,84.393068 28.583913,76.111984 29.964091,68.137605 34.871404,60.929994 41.772306,56.636097 L 83.944502,29.799245 c 2.607009,-1.686889 5.520725,-2.913717 8.587792,-3.833836 13.648456,-3.527128 27.910326,1.840239 35.884706,13.341751 4.90731,6.747548 6.74755,15.18199 5.36737,23.463074 -0.30671,1.380181 -0.61341,2.607008 -1.07347,3.987189 l -0.76677,2.453655 -2.14695,-1.533531 c -5.06066,-3.680486 -10.58138,-6.440845 -16.56217,-8.281088 l -1.53354,-0.460061 0.15336,-1.533532 c 0.15335,-2.146951 -0.46006,-4.447251 -1.68689,-6.287494 -2.45365,-3.527129 -6.74755,-5.060664 -10.888094,-3.987186 -0.92012,0.306704 -1.840239,0.613411 -2.607009,1.073473 L 54.653996,75.038511 c -2.146947,1.380181 -3.527129,3.373774 -3.98719,5.827429 -0.460058,2.453655 0.153354,5.060663 1.533535,7.05426 2.453655,3.527128 6.747552,5.060663 10.888096,3.98719 0.920119,-0.306708 1.840239,-0.613416 2.607005,-1.073477 L 81.797555,80.559232 c 2.607009,-1.686885 5.520725,-2.913713 8.587792,-3.833836 13.648453,-3.527128 27.910323,1.840243 35.884703,13.341751 4.90731,6.747552 6.74755,15.181993 5.36737,23.463073 -1.38018,7.97438 -6.28749,15.18199 -13.18839,19.47589 l -42.1722,26.83685 c -2.607008,1.68689 -5.520721,2.91372 -8.587791,3.83384"
       class="st1"
       inkscape:connector-curvature="0"
       style="fill:#fff;fill-opacity:1;stroke:#228be6;stroke-width:10.64205074;stroke-miterlimit:4;stroke-dasharray:none;stroke-opacity:.5" />
  </g>
</svg>
